<?xml version="1.0" encoding="UTF-8"?><svg id="Layer_5" xmlns="http://www.w3.org/2000/svg" viewBox="0 0 466.11 466.37"><ellipse cx="39.82" cy="341.62" rx="34.02" ry="51.1" transform="translate(-178.98 76.26) rotate(-32.86)"/><path d="m172.57,78.53c-3.76,25.14-12.4,60.6-33.51,98.11-24.04,42.74-53.02,68.16-68.46,81.51-21.74,18.79-42.47,31.79-58.51,40.54l55.45,85.85s28.59-24.28,39.88-15.55c11.29,8.72,9.37,4.31,17.96,17.6,8.59,13.29,39.92,61.81,39.92,61.81,0,0,31.11,41.6,45.02-1.76,15.95-49.73,34.15-22.71,3.6-51.3-16.67-15.6-17.42-9.47-33.97-33.63s21.21-40.07,33.33-43.19c12.12-3.12,83.06,2.71,108.7,10.79,4.61,1.45,7.06,1.65,7.72.68,5.52-8.17-63.92-63.46-111.23-141.98-26.14-43.38-39.11-83.46-45.89-109.47Z"/><ellipse cx="404.97" cy="104.75" rx="19.77" ry="17.41" transform="translate(7.96 236.49) rotate(-32.86)"/><path d="m333.45,146.23l58.02-52.43c2.11-1.91,5.32-1.72,6.69.39l13.64,21.11c1.37,2.11.22,5.12-2.39,6.26l-71.65,31.32c-4.63,2.02-8.05-3.26-4.3-6.65Z"/><ellipse cx="447.01" cy="207.19" rx="19.77" ry="17.41" transform="translate(-40.9 275.69) rotate(-32.86)"/><path d="m371.2,191.6l75.58-2.18c2.75-.08,4.62,2.24,3.88,4.83l-7.31,25.88c-.73,2.59-3.7,4.19-6.19,3.32l-68.27-23.7c-4.41-1.53-2.58-8.01,2.3-8.16Z"/><ellipse cx="323.03" cy="18.14" rx="19.77" ry="17.41" transform="translate(41.84 178.17) rotate(-32.86)"/><path d="m297.69,92.39l6.47-71.98c.24-2.62,2.91-4.67,5.57-4.27l26.59,3.98c2.66.4,4.01,3.05,2.81,5.53l-33.06,68c-2.14,4.4-8.8,3.4-8.38-1.25Z"/><path d="m365.38,332.35c-29,18.73-92.67-28.28-142.23-104.99-49.55-76.72-66.21-154.09-37.22-172.82s92.67,28.28,142.23,104.99c49.55,76.72,66.21,154.09,37.22,172.82Zm-53.17-162.52c-41.73-64.6-91.92-106.4-112.11-93.36-20.19,13.04-2.73,75.98,39,140.58,41.73,64.6,91.92,106.4,112.11,93.36,20.19-13.04,2.73-75.98-39-140.58Z"/></svg>